<svg xmlns="http://www.w3.org/2000/svg" width="37.479" height="36.433" viewBox="0 0 37.479 36.433">
  <path id="Path_77891" data-name="Path 77891" d="M35.606,73.16,48.766,70.6a24.165,24.165,0,0,1-.1,2.848,3.027,3.027,0,0,1-1.8,2.66c-.673.4-1.643.832-1.848,1.646l-.354,1.4,2.877-.633a64.9,64.9,0,0,1-3.395,13.348h-12.8l9.09-18.209ZM56.271,67.58l-4.948-1.927c.126-1.65.233-5.311-1.236-6.444-1.469,1.133-1.361,4.794-1.236,6.444L43.9,67.58l6.183-12.14Zm8.3,5.581L51.409,70.6a24.092,24.092,0,0,0,.1,2.848,3.027,3.027,0,0,0,1.8,2.66c.673.4,1.642.832,1.847,1.646l.354,1.4-2.877-.633a64.9,64.9,0,0,0,3.395,13.348h12.8l-9.09-18.209Z" transform="translate(-31.348 -55.44)" fill="#00bceb" fill-rule="evenodd"/>
</svg>
